<svg id="Layer_1" data-name="Layer 1" xmlns="http://www.w3.org/2000/svg" viewBox="0 0 1423.15 897.7"><defs><style>.cls-1{fill:#ffa227;}.cls-2{fill:#d88921;}.cls-3{fill:#f5892f;opacity:0.6;}.cls-4{fill:#e8b964;}.cls-5{fill:#c17829;}.cls-6{fill:#f7bf31;opacity:0.5;}.cls-7{fill:#d3a55e;}.cls-8{fill:#ffc871;}.cls-9{fill:#ffd527;}.cls-10{font-size:257.19px;font-family:EleganciaRomantica, Elegancia Romantica;}</style></defs><path class="cls-1" d="M32.38,862.33c19,17.82,132.08,56.18,305.69-53.91C518,694.31,638.91,571.21,669.78,519c30.21-51.14-8.91-174-149-134.49C428.76,410.41,227,502.73,115.51,623.72,1.29,747.63-11.88,820.83,32.38,862.33Z"/><path class="cls-2" d="M669.57,503.38c-22.05,40.32-58.3,67.21-89.78,100.09-34.38,35.92-73.8,64.75-110.07,97.59-37.93,34.36-84.64,53.46-126,82.39-20.15,14.12-36.7,32.43-59.89,42.65-24.37,10.73-49,18.5-73.73,27.95-25,9.56-45,13.22-69.74,16.44-11.71,1.53-23,2.61-35.14,3.49-8.53.61-14.61,3.92-20.9,7.28,52.26,8,140.29-.18,254.55-72.64,179.94-114.11,300.83-237.2,331.7-289.46,6.38-10.79,9.67-24.77,9.57-39.74C675.82,488.81,672.13,498.71,669.57,503.38Z"/><path class="cls-3" d="M521.37,385.92C429.3,411.86,227.58,504.18,116.06,625.16,32.79,715.5,3.23,778.87,10.48,822.67c4.88,3,11.42,5.14,20.28,6.29,50.48,6.53,119,.41,155.68-31.25,37.08-32,65.27-48,115.15-56.06,32.17-5.2,58-55.9,88.65-67.1,47.48-17.36,88.55-50.78,112.43-95.95,19.54-37,29.47-56.26,67.3-77.6,26.13-14.74,44.08-27.25,70-43.21,12.9-8,21.84-17.1,26.76-27.61C645.74,392.1,599.1,364,521.37,385.92Z"/><path class="cls-4" d="M148.93,669.33C219,667.58,305,718,305,718s-42.61-73.13-94-90.85C184.62,618,146,614.37,124.93,613q-4.46,4.59-8.75,9.24c-19.06,20.68-35.3,39.95-48.94,57.89C88,675.54,118.59,670.08,148.93,669.33Z"/><path class="cls-5" d="M206.56,633.83c36.85,12.72,69.19,53.94,84.53,76.23,9.92,5.05,15.8,8.5,15.8,8.5s-42.61-73.13-94-90.86c-26.44-9.12-65.08-12.8-86.13-14.19q-3,3.07-5.87,6.17C142.07,621.09,180.32,624.78,206.56,633.83Z"/><path class="cls-4" d="M243.27,585.43c40.64,9.8,142.5,74.93,142.5,74.93s-24.7-75-64.55-98.29c-23.37-13.68-63.34-26.18-92.41-34.18a788.65,788.65,0,0,0-69.91,54C178.83,579.14,210.08,577.42,243.27,585.43Z"/><path class="cls-5" d="M321.24,562.12c-23.37-13.69-63.34-26.18-92.41-34.19q-4.16,2.88-8.28,5.8c28.87,8,67.46,20.23,90.26,33.58,28.49,16.69,49.24,59.77,58.75,83,10,6.14,16.23,10.13,16.23,10.13S361.08,585.45,321.24,562.12Z"/><path class="cls-4" d="M360.76,514.83c60.45,15.53,113.42,63.65,113.42,63.65S453.29,507,409.63,480.19c-17.94-11-38.88-19.47-57.32-25.57-24.56,12.67-49.69,26.67-74.5,41.85C303.12,501.86,347,511.29,360.76,514.83Z"/><path class="cls-5" d="M409.54,480.05c-18-11-38.88-19.47-57.32-25.57-2.28,1.18-4.57,2.37-6.85,3.57,17.2,5.95,36.1,13.86,52.5,23.94,30.64,18.84,50.06,59.63,58.92,82.29,10.89,8.24,17.3,14.06,17.3,14.06S453.2,506.89,409.54,480.05Z"/><path class="cls-4" d="M478.62,444.11c33,18.47,65.9,59.33,65.9,59.33s-7.54-59.14-27.84-80c-8.51-8.73-23-17.91-36.47-25.45-19.27,6.88-40.93,15.49-64,25.65C435.36,427.71,462.46,435.07,478.62,444.11Z"/><path class="cls-5" d="M516.67,423.51c-8.5-8.73-23-17.92-36.47-25.46l-5.88,2.13c12.75,7.26,26,15.85,33.94,24,14.34,14.71,22.32,48.56,25.76,67.15,6.54,7.19,10.5,12.1,10.5,12.1S537,444.33,516.67,423.51Z"/><path class="cls-6" d="M134.85,694.43c-12.18-.64-21.93-5.35-33.17-2.33-8.49,2.29-26.56,3.92-32.9,9.17h0c-21.66,14.83-60.46,82.51-27.6,97.27,12.88,5.79,50-14.81,59.89-25.19,9.67-10.15,17.52-20.45,29.24-27.57,9.59-5.83,41-18,42-30.86C173.37,702.5,155.89,695.52,134.85,694.43Z"/><path class="cls-6" d="M247.29,600.68c-14.81-5.89-30.65-4.51-46.11-5.83-13.49-1.15-28.67-11.44-41.51-4.93l-3.52,3.81c-3,4.69-9.55,10.87-2.88,15.93,5.3,4,15.32-.14,20.84-1.28,14.14-2.94,29.08-.7,42.49,5.22,11.57,5.12,24.65,15.82,38.32,13.85C273.67,624.74,256.63,604.39,247.29,600.68Z"/><path class="cls-6" d="M357.42,528.79c-13.35-9.67-37.53-8.92-53.34-13.24-9.66-2.63-38-19-43.91-5.07l-4.34,1.64c-4.1,5.36-10.79,8.77-4.91,14.91,4.8,5,13.26,3.7,19.29,3.39,14.3-.73,27.25,3.93,40.09,9.83,10.77,5,26.64,19,39.36,16.53C362.78,554.29,368.75,537,357.42,528.79Z"/><path class="cls-6" d="M463.25,452.49c-11.38-5.23-23-7-34.52-11.51-12.63-4.94-26-5.69-37.18-2.64l-3.06,2.81c-16.54,6.26-14.27,19.79,3.9,19,19-.81,29.09,3.87,45,14.53,10.35,6.94,27,17,36.81,4.85C485.14,465.92,475.75,458.25,463.25,452.49Z"/><path class="cls-6" d="M584.14,383.69c-23.4-.83-47.75.56-69.43,8.78l-4.16-.08c-10.49,1.62-4.5,9.34,1.31,12.11,6.67,3.2,12.15,3.84,17.67,9.63,5.33,5.58,6.75,11.23,15.15,11.59,5.81.26,13.3-2.8,18.63-5.38,10.91-5.29,21.37-13.27,31.45-19.41C610.1,391.59,597.67,384.17,584.14,383.69Z"/><path class="cls-7" d="M99.06,661.27c5.21-3.5,11-5.72,16.86-7.94,3.38-1.29,1.39-6.53-2-5.25-6.32,2.4-12.55,4.88-18.19,8.66-3,2,.31,6.54,3.32,4.53Z"/><path class="cls-7" d="M126.08,638.62c4.15-.11,8.75.26,12.62,1.89,3.33,1.4,5.64-3.72,2.3-5.12-4.79-2-10.3-2.5-15.45-2.36-3.62.1-3.07,5.69.53,5.59Z"/><path class="cls-7" d="M127.06,656.55A31,31,0,0,1,138,654.77c3.62,0,3.06-5.57-.52-5.59a35.39,35.39,0,0,0-12.4,2.12c-3.41,1.23-1.41,6.48,2,5.25Z"/><path class="cls-7" d="M156.65,662.28c5.14.94,10.23,2,15.48,1.87,3.63-.08,3.07-5.67-.52-5.59-4.74.11-9.39-1-14-1.82-3.57-.65-4.48,4.89-.93,5.54Z"/><path class="cls-7" d="M159,642.36c4.53.17,8.88,1.56,13.31,2.4,3.57.67,4.48-4.87.93-5.54-4.43-.83-8.78-2.22-13.31-2.39a2.87,2.87,0,0,0-3.23,2.3c-.23,1.36.77,3.17,2.3,3.23Z"/><path class="cls-7" d="M183.59,651.92c3.81,4.57,8.79,8.59,14.86,9.39,3.59.47,4.52-5.06.93-5.54-4.61-.6-8.36-3.69-11.26-7.16-2.3-2.76-6.86.53-4.53,3.31Z"/><path class="cls-7" d="M202.65,641.42c1.5,4,3.08,7.75,6.14,10.76,2.58,2.53,6.09-1.85,3.53-4.37-2.27-2.23-3.32-5.48-4.42-8.38-1.29-3.39-6.54-1.4-5.25,2Z"/><path class="cls-7" d="M223.2,674.25a70.47,70.47,0,0,0,14.48,1.42c3.63-.1,3.07-5.69-.52-5.59a62.75,62.75,0,0,1-13-1.37c-3.57-.64-4.49,4.9-.93,5.54Z"/><path class="cls-7" d="M238.8,668.08c1.54,1.4,3.27,2.57,4.81,4a2.83,2.83,0,0,0,3.95-.42,2.87,2.87,0,0,0-.42-4c-1.55-1.4-3.27-2.57-4.81-4a2.8,2.8,0,1,0-3.53,4.36Z"/><path class="cls-7" d="M257.14,685.93a23,23,0,0,1,5.13,5.61c2.08,3,6.61-.35,4.53-3.32a27.75,27.75,0,0,0-6.13-6.66c-2.91-2.13-6.46,2.22-3.53,4.37Z"/><path class="cls-7" d="M185.12,574.18a41.09,41.09,0,0,1,12.37-2.32c3.63-.18,3.08-5.76-.52-5.59a46.27,46.27,0,0,0-13.84,2.66c-3.41,1.24-1.41,6.49,2,5.25Z"/><path class="cls-7" d="M205.41,555.74A68.4,68.4,0,0,1,217.24,552c3.53-.64,3-6.24-.53-5.59a76.52,76.52,0,0,0-13.29,4.11c-3.39,1.28-1.4,6.53,2,5.25Z"/><path class="cls-7" d="M216.75,570c4.23.76,8.46,1.51,12.59,2.67,3.49,1,4.38-4.57.93-5.54-4.13-1.16-8.36-1.91-12.58-2.67-3.58-.64-4.49,4.9-.94,5.54Z"/><path class="cls-7" d="M231.9,552.58a64.09,64.09,0,0,0,8,10.2c2.42,2.63,7-.65,4.54-3.32a62.89,62.89,0,0,1-8-10.19c-1.86-3.1-6.38.23-4.54,3.31Z"/><path class="cls-7" d="M262.53,581.15a138.07,138.07,0,0,1,13.4,4.84c3.32,1.46,5.62-3.65,2.31-5.12A138.25,138.25,0,0,0,264.83,576c-3.41-1.1-5.75,4-2.3,5.12Z"/><path class="cls-7" d="M291.58,569a3.69,3.69,0,0,1,.46.08c.76.15-.48-.19.29.11a14.3,14.3,0,0,1,1.58.75c1,.52,1.95,1.08,3,1.55a2.81,2.81,0,0,0,2.31-5.12c-2.19-1-4.23-2.57-6.67-2.9a2.8,2.8,0,1,0-.93,5.53Z"/><path class="cls-7" d="M314.37,589.1a27.9,27.9,0,0,0,8.41,8.28c3,2,6.57-2.39,3.52-4.36a23.94,23.94,0,0,1-7.39-7.23c-2-3-6.49.28-4.54,3.31Z"/><path class="cls-7" d="M311.37,603.14a130.46,130.46,0,0,0,12.24,6.11c3.3,1.49,5.61-3.63,2.3-5.12A126.74,126.74,0,0,1,313.68,598c-3.13-1.82-5.4,3.31-2.31,5.12Z"/><path class="cls-7" d="M302.26,494.93c4.14-.69,8.27-1.4,12.39-2.21,3.52-.7,3-6.3-.53-5.59-4.11.81-8.25,1.52-12.39,2.21-3.55.59-3,6.19.53,5.59Z"/><path class="cls-7" d="M347.32,471.76c.35,0,.7.09,1.05.16.18,0,.74.21-.07,0a3.61,3.61,0,0,1,.42.16c.15.06.28.13.42.2.5.27-.57-.37-.08-.05a7.88,7.88,0,0,1,.95.78,2.81,2.81,0,0,0,3.53-4.37,9.22,9.22,0,0,0-5.29-2.38,2.81,2.81,0,0,0-.93,5.54Z"/><path class="cls-7" d="M336.2,482.34a35.93,35.93,0,0,0,8.69,6.41c3.27,1.54,5.57-3.58,2.3-5.12-2.86-1.35-5.16-3.54-7.46-5.66-2.67-2.45-6.18,1.92-3.53,4.37Z"/><path class="cls-7" d="M345.8,500.44l8.14,1.87c3.54.82,4.44-4.73.94-5.53l-8.15-1.87c-3.54-.81-4.44,4.73-.93,5.53Z"/><path class="cls-7" d="M387.79,511.55A39.91,39.91,0,0,0,403,518.42c3.53.85,4.43-4.7.93-5.53a33.42,33.42,0,0,1-12.65-5.7c-2.87-2.2-6.41,2.16-3.53,4.36Z"/><path class="cls-7" d="M369.86,489.2c3.05,1.31,6.38,1.73,9.42,3,3.33,1.43,5.63-3.69,2.3-5.12-3-1.31-6.37-1.73-9.42-3-3.32-1.43-5.63,3.68-2.3,5.12Z"/><path class="cls-7" d="M416.07,515c3,3.26,5.76,6.67,8.72,9.93,2.41,2.64,7-.64,4.54-3.32-3-3.26-5.76-6.66-8.73-9.92-2.4-2.64-7,.63-4.53,3.31Z"/><path class="cls-7" d="M423.92,533.51l5.46,7.85c2.06,3,6.6-.34,4.53-3.31l-5.46-7.85c-2.06-3-6.59.34-4.53,3.31Z"/><path class="cls-7" d="M445.68,424c4.5.11,9,.56,13.48.67,3.62.09,3-5.5-.52-5.59-4.5-.11-9-.56-13.48-.67-3.62-.09-3.05,5.5.52,5.59Z"/><path class="cls-7" d="M472.57,412.44a126,126,0,0,0,12.94,8.93c3.11,1.86,5.38-3.28,2.31-5.12a114.41,114.41,0,0,1-11.73-8.18c-2.84-2.22-6.38,2.13-3.52,4.37Z"/><path class="cls-7" d="M481.13,433.78a30.36,30.36,0,0,1,9.23,6.75,2.87,2.87,0,0,0,3.92.61c1.12-.82,1.65-2.81.61-3.92a37.17,37.17,0,0,0-11.46-8.56c-3.28-1.53-5.58,3.59-2.3,5.12Z"/><path class="cls-7" d="M509.22,453.22a26.24,26.24,0,0,1,3.38,7c1.29,3.39,6.53,1.4,5.25-2a31.67,31.67,0,0,0-4.1-8.33c-2.21-2.86-6.75.44-4.53,3.31Z"/><path class="cls-7" d="M500.19,431.87A46.33,46.33,0,0,0,507.38,444c2.25,2.81,6.8-.49,4.53-3.32a40.89,40.89,0,0,1-6.47-10.8c-1.32-3.37-6.57-1.38-5.25,2Z"/><path class="cls-8" d="M109.11,641a37.38,37.38,0,0,0,14,2.9c1.53,0,2.66-1.67,2.53-3.06a2.86,2.86,0,0,0-3-2.53,30.25,30.25,0,0,1-11.18-2.43c-3.32-1.44-5.62,3.67-2.3,5.12Z"/><path class="cls-8" d="M114.34,668.81l5.79-2.2c3.38-1.28,1.39-6.53-2-5.24l-5.79,2.19c-3.38,1.28-1.39,6.53,2,5.25Z"/><path class="cls-8" d="M141.84,665l2.89-1.1a2.81,2.81,0,0,0-2-5.25l-2.89,1.1a2.81,2.81,0,0,0,2,5.25Z"/><path class="cls-8" d="M149.59,649.61a8.2,8.2,0,0,0,5.58.41,2.81,2.81,0,0,0-2-5.25c-.37.12.83-.11.07,0h-.33c.81,0,.2,0,0,0a6.69,6.69,0,0,1-.74-.12l-.35-.09c.74.2.22.06,0,0a2.81,2.81,0,1,0-2.3,5.12Z"/><path class="cls-8" d="M146.41,633.09a78.5,78.5,0,0,0,8.87,1.6c3.59.38,4.53-5.15.94-5.54a74.43,74.43,0,0,1-8.88-1.6c-3.54-.81-4.44,4.73-.93,5.54Z"/><path class="cls-8" d="M175.93,634.19a7.77,7.77,0,0,0,6.42,4.29,2.81,2.81,0,0,0,.93-5.54,7.55,7.55,0,0,1-.95-.17q-.47-.12,0,0a5.15,5.15,0,0,1-.68-.29c-.29-.15-.29-.15,0,0a3.18,3.18,0,0,1-.37-.27c-.24-.22-.23-.2,0,0-.45-.52.2.55-.07-.07a2.81,2.81,0,1,0-5.25,2Z"/><path class="cls-8" d="M176.65,653.4a33.41,33.41,0,0,1,4.92,3.31,2.81,2.81,0,0,0,3.53-4.37,39.55,39.55,0,0,0-6.14-4.06c-3.29-1.53-5.59,3.59-2.31,5.12Z"/><path class="cls-8" d="M183.54,667.79a19.34,19.34,0,0,0,10.51-.27c3.43-1.18,1.43-6.42-2-5.25a13.88,13.88,0,0,1-7.59,0c-3.54-.78-4.45,4.77-.93,5.54Z"/><path class="cls-8" d="M201.32,575.48l6.5-2.47c3.39-1.28,1.4-6.53-2-5.25l-6.5,2.47c-3.39,1.28-1.4,6.53,2,5.25Z"/><path class="cls-8" d="M204,562.49a29,29,0,0,0,12.4-1.82c3.41-1.23,1.41-6.48-2-5.24A22.43,22.43,0,0,1,204.9,557c-3.59-.29-4.54,5.24-.93,5.54Z"/><path class="cls-8" d="M224.33,563.86c1.86.23,3.58,1,5.44,1.25a2.81,2.81,0,0,0,.93-5.54c-1.86-.23-3.58-1-5.44-1.25a2.81,2.81,0,0,0-.93,5.54Z"/><path class="cls-8" d="M246.37,552.2c2.75.31,5.78.87,8.12,2.46a2.87,2.87,0,0,0,3.95-.42,2.83,2.83,0,0,0-.42-4,23.66,23.66,0,0,0-10.72-3.63c-3.59-.4-4.53,5.13-.93,5.54Z"/><path class="cls-8" d="M251.76,561.62a6.16,6.16,0,0,0,5.42,3.84,2.81,2.81,0,1,0,.93-5.54,8.89,8.89,0,0,1-.88-.13c-.19,0-.73-.21.08.05l-.4-.17c-.48-.22.57.4.15.09-.19-.14-.45-.5.11.14a3.27,3.27,0,0,1-.25-.36c.46.74.18.31.09.09a2.81,2.81,0,0,0-5.25,2Z"/><path class="cls-8" d="M245.21,577.85c3.38-1.28,1.39-6.53-2-5.25s-1.4,6.53,2,5.25Z"/><path class="cls-8" d="M244.47,578a24.09,24.09,0,0,1,6.16.67c3.54.8,4.44-4.74.93-5.53a29.52,29.52,0,0,0-7.61-.73,2.81,2.81,0,0,0-2.53,3.06,2.85,2.85,0,0,0,3.05,2.53Z"/><path class="cls-8" d="M274,569.71a28.16,28.16,0,0,0,6.13,6.66c2.91,2.13,6.46-2.22,3.53-4.37a23.19,23.19,0,0,1-5.13-5.6c-2.07-3-6.61.34-4.53,3.31Z"/><path class="cls-8" d="M283.5,594.09a14.17,14.17,0,0,0,8.73,3,2.82,2.82,0,0,0,2.53-3.06,2.85,2.85,0,0,0-3.06-2.53,6.76,6.76,0,0,1-2.14-.38,10.83,10.83,0,0,1-2.54-1.43,2.84,2.84,0,0,0-3.94.42,2.81,2.81,0,0,0,.42,4Z"/><path class="cls-8" d="M296.34,581.09c1.06,2.78,2.36,5.31,4.78,7.14,2.87,2.19,6.42-2.17,3.53-4.36a9.74,9.74,0,0,1-3.06-4.77c-1.28-3.39-6.53-1.4-5.25,2Z"/><path class="cls-8" d="M318.11,499.67c3.43-.56,6.64-.89,10,0s4.39-4.6.93-5.53c-3.82-1-7.64-.71-11.49-.08-3.56.58-3,6.17.52,5.59Z"/><path class="cls-8" d="M319.14,482.85c2-.77,4.11-1.58,6.32-1.15,3.56.68,4.48-4.86.93-5.54-3.19-.61-6.27.32-9.24,1.44-3.38,1.28-1.39,6.53,2,5.25Z"/><path class="cls-8" d="M328,490.65c2.66.66,5,2.19,7.7,2.86a2.82,2.82,0,0,0,3.23-2.3,2.85,2.85,0,0,0-2.3-3.23c-2.66-.67-5-2.2-7.7-2.87a2.82,2.82,0,0,0-3.24,2.3,2.86,2.86,0,0,0,2.31,3.24Z"/><path class="cls-8" d="M336.52,472.29a21.81,21.81,0,0,0,10,3.9c3.59.42,4.53-5.12.93-5.53a16.08,16.08,0,0,1-7.4-2.73c-2.95-2.06-6.5,2.28-3.53,4.36Z"/><path class="cls-8" d="M354,485.35c4.41-1.67,8.8-3.29,13.55-3.59,3.62-.23,3.07-5.82-.53-5.59-5.23.33-10.16,2.09-15,3.93-3.39,1.28-1.4,6.53,2,5.25Z"/><path class="cls-8" d="M381.7,485.53a39,39,0,0,1,5.92,3.77,2.85,2.85,0,0,0,3.94-.42,2.82,2.82,0,0,0-.42-3.95,45.68,45.68,0,0,0-7.14-4.51c-3.28-1.54-5.58,3.58-2.3,5.11Z"/><path class="cls-8" d="M360.84,495.92a14,14,0,0,1,4.69,3.51,2.85,2.85,0,0,0,3.92.61,2.81,2.81,0,0,0,.61-3.92,20.21,20.21,0,0,0-6.92-5.31c-3.28-1.54-5.58,3.58-2.3,5.11Z"/><path class="cls-8" d="M365.05,509.21c2.57,1.19,4.87,2.66,7.66,3.35a2.81,2.81,0,0,0,3.23-2.3,2.86,2.86,0,0,0-2.3-3.24c-2.25-.55-4.2-2-6.29-2.93-3.29-1.52-5.59,3.6-2.3,5.12Z"/><path class="cls-8" d="M382.18,504.83l5.16.53a2.87,2.87,0,0,0,3.24-2.3,2.83,2.83,0,0,0-2.31-3.24l-5.16-.52a2.85,2.85,0,0,0-3.23,2.3,2.82,2.82,0,0,0,2.3,3.23Z"/><path class="cls-8" d="M400,503.38a17.89,17.89,0,0,1,4.65,2.59,2.8,2.8,0,0,0,3.52-4.36,22.61,22.61,0,0,0-5.87-3.35,2.81,2.81,0,0,0-2.3,5.12Z"/><path class="cls-8" d="M387.25,519.81a17.89,17.89,0,0,0,5.13,1,2.85,2.85,0,0,0,3.23-2.3,2.82,2.82,0,0,0-2.3-3.23c-.79-.08-1.57-.17-2.36-.28-.34,0-.69-.12-1-.19s-.31-.08,0,0l-.38-.14a2.81,2.81,0,0,0-2.31,5.12Z"/><path class="cls-8" d="M430.3,424.89a11.55,11.55,0,0,1,5,1.46c3.3,1.48,5.61-3.64,2.3-5.12a17.9,17.9,0,0,0-7.84-1.93,2.82,2.82,0,0,0-2.54,3.05,2.87,2.87,0,0,0,3.06,2.54Z"/><path class="cls-8" d="M455.74,430.65c3.1.29,6.22.3,9.32.59,3.59.35,4.54-5.19.94-5.53-3.11-.3-6.22-.31-9.33-.6-3.59-.34-4.53,5.19-.93,5.54Z"/><path class="cls-8" d="M471.66,419.57c-1.38-2-2.85-3.84-3.21-6.28-.52-3.58-6.11-3.06-5.59.52s2.27,6.21,4.27,9.07,6.61-.35,4.53-3.31Z"/><path class="cls-1" d="M656.66,862.33c-19,17.82-132.09,56.18-305.7-53.91C171,694.31,50.13,571.21,19.26,519c-30.22-51.14,8.91-174,149-134.49C260.28,410.41,462,502.73,573.53,623.72,687.75,747.63,700.92,820.83,656.66,862.33Z"/><path class="cls-2" d="M19.46,503.38c22,40.32,58.3,67.21,89.78,100.09,34.39,35.92,73.8,64.75,110.08,97.59,37.93,34.36,84.64,53.46,126,82.39,20.16,14.12,36.7,32.43,59.89,42.65,24.38,10.73,49,18.5,73.73,27.95,25,9.56,45,13.22,69.75,16.44,11.71,1.53,23,2.61,35.14,3.49,8.53.61,14.61,3.92,20.9,7.28-52.26,8-140.3-.18-254.55-72.64C170.2,694.51,49.31,571.42,18.43,519.16c-6.37-10.79-9.66-24.77-9.56-39.74C13.21,488.81,16.91,498.71,19.46,503.38Z"/><path class="cls-3" d="M167.67,385.92C259.73,411.86,461.46,504.18,573,625.16,656.25,715.5,685.8,778.87,678.56,822.67c-4.88,3-11.42,5.14-20.29,6.29-50.48,6.53-119,.41-155.68-31.25-37.08-32-65.27-48-115.15-56.06-32.16-5.2-58-55.9-88.64-67.1-47.48-17.36-88.55-50.78-112.43-95.95-19.54-37-29.48-56.26-67.3-77.6-26.13-14.74-44.08-27.25-70-43.21-12.91-8-21.84-17.1-26.77-27.61C43.29,392.1,89.93,364,167.67,385.92Z"/><path class="cls-4" d="M540.11,669.33C470.09,667.58,384,718,384,718s42.61-73.13,94-90.85c26.44-9.13,65.09-12.8,86.13-14.19q4.47,4.59,8.75,9.24c19.07,20.68,35.31,39.95,48.94,57.89C601,675.54,570.44,670.08,540.11,669.33Z"/><path class="cls-5" d="M482.47,633.83c-36.84,12.72-69.18,53.94-84.52,76.23-9.93,5.05-15.81,8.5-15.81,8.5s42.61-73.13,94-90.86c26.44-9.12,65.08-12.8,86.13-14.19q3,3.07,5.87,6.17C547,621.09,508.72,624.78,482.47,633.83Z"/><path class="cls-4" d="M445.77,585.43c-40.64,9.8-142.5,74.93-142.5,74.93s24.7-75,64.55-98.29c23.36-13.68,63.33-26.18,92.41-34.18a790.11,790.11,0,0,1,69.91,54C510.21,579.14,479,577.42,445.77,585.43Z"/><path class="cls-5" d="M367.8,562.12c23.37-13.69,63.34-26.18,92.41-34.19q4.16,2.88,8.27,5.8c-28.86,8-67.45,20.23-90.25,33.58-28.5,16.69-49.25,59.77-58.75,83-10,6.14-16.23,10.13-16.23,10.13S328,585.45,367.8,562.12Z"/><path class="cls-4" d="M328.27,514.83c-60.45,15.53-113.41,63.65-113.41,63.65s20.89-71.45,64.55-98.29c17.94-11,38.87-19.47,57.31-25.57,24.57,12.67,49.69,26.67,74.51,41.85C385.92,501.86,342.06,511.29,328.27,514.83Z"/><path class="cls-5" d="M279.5,480.05c17.94-11,38.88-19.47,57.31-25.57l6.86,3.57c-17.21,5.95-36.1,13.86-52.51,23.94-30.63,18.84-50.06,59.63-58.92,82.29C221.35,572.52,215,578.34,215,578.34S235.84,506.89,279.5,480.05Z"/><path class="cls-4" d="M210.42,444.11c-33,18.47-65.9,59.33-65.9,59.33s7.54-59.14,27.84-80c8.51-8.73,23-17.91,36.47-25.45,19.26,6.88,40.92,15.49,64,25.65C253.67,427.71,226.58,435.07,210.42,444.11Z"/><path class="cls-5" d="M172.36,423.51c8.51-8.73,23-17.92,36.47-25.46,1.94.69,3.91,1.41,5.89,2.13-12.75,7.26-26,15.85-33.95,24-14.34,14.71-22.31,48.56-25.76,67.15-6.54,7.19-10.49,12.1-10.49,12.1S152.07,444.33,172.36,423.51Z"/><path class="cls-6" d="M554.19,694.43c12.17-.64,21.92-5.35,33.16-2.33,8.49,2.29,26.57,3.92,32.9,9.17h0c21.66,14.83,60.47,82.51,27.61,97.27-12.88,5.79-50-14.81-59.9-25.19-9.67-10.15-17.52-20.45-29.23-27.57-9.59-5.83-41-18-42-30.86C515.67,702.5,533.14,695.52,554.19,694.43Z"/><path class="cls-6" d="M441.74,600.68c14.82-5.89,30.65-4.51,46.12-5.83,13.49-1.15,28.67-11.44,41.51-4.93l3.51,3.81c3,4.69,9.56,10.87,2.89,15.93-5.3,4-15.33-.14-20.84-1.28-14.14-2.94-29.09-.7-42.49,5.22-11.57,5.12-24.66,15.82-38.32,13.85C415.37,624.74,432.41,604.39,441.74,600.68Z"/><path class="cls-6" d="M331.62,528.79c13.34-9.67,37.53-8.92,53.34-13.24,9.66-2.63,38-19,43.9-5.07l4.34,1.64c4.11,5.36,10.8,8.77,4.91,14.91-4.79,5-13.26,3.7-19.29,3.39-14.3-.73-27.24,3.93-40.09,9.83-10.76,5-26.64,19-39.35,16.53C326.26,554.29,320.29,537,331.62,528.79Z"/><path class="cls-6" d="M225.79,452.49c11.38-5.23,23-7,34.52-11.51,12.63-4.94,26-5.69,37.17-2.64l3.07,2.81c16.54,6.26,14.26,19.79-3.9,19-19-.81-29.09,3.87-45,14.53-10.35,6.94-27,17-36.81,4.85C203.89,465.92,213.28,458.25,225.79,452.49Z"/><path class="cls-6" d="M104.9,383.69c23.4-.83,47.75.56,69.43,8.78l4.16-.08C189,394,183,401.73,177.18,404.5c-6.68,3.2-12.15,3.84-17.68,9.63-5.32,5.58-6.75,11.23-15.15,11.59-5.81.26-13.29-2.8-18.62-5.38-10.91-5.29-21.37-13.27-31.46-19.41C78.94,391.59,91.36,384.17,104.9,383.69Z"/><path class="cls-7" d="M590,661.27c-5.22-3.5-11-5.72-16.86-7.94-3.39-1.29-1.4-6.53,2-5.25,6.31,2.4,12.55,4.88,18.18,8.66,3,2-.31,6.54-3.31,4.53Z"/><path class="cls-7" d="M563,638.62c-4.15-.11-8.76.26-12.62,1.89-3.33,1.4-5.65-3.72-2.3-5.12,4.78-2,10.3-2.5,15.44-2.36,3.63.1,3.07,5.69-.52,5.59Z"/><path class="cls-7" d="M562,656.55a31.06,31.06,0,0,0-10.93-1.78c-3.63,0-3.06-5.57.52-5.59A35.43,35.43,0,0,1,564,651.3c3.4,1.23,1.41,6.48-2,5.25Z"/><path class="cls-7" d="M532.38,662.28c-5.14.94-10.23,2-15.48,1.87-3.63-.08-3.07-5.67.53-5.59,4.73.11,9.39-1,14-1.82,3.57-.65,4.49,4.89.93,5.54Z"/><path class="cls-7" d="M530,642.36c-4.52.17-8.88,1.56-13.31,2.4-3.56.67-4.48-4.87-.93-5.54,4.43-.83,8.78-2.22,13.31-2.39a2.88,2.88,0,0,1,3.24,2.3c.23,1.36-.78,3.17-2.31,3.23Z"/><path class="cls-7" d="M505.45,651.92c-3.82,4.57-8.79,8.59-14.86,9.39-3.59.47-4.52-5.06-.93-5.54,4.6-.6,8.36-3.69,11.25-7.16,2.31-2.76,6.86.53,4.54,3.31Z"/><path class="cls-7" d="M486.39,641.42c-1.5,4-3.09,7.75-6.15,10.76-2.57,2.53-6.08-1.85-3.52-4.37,2.27-2.23,3.31-5.48,4.42-8.38,1.28-3.39,6.53-1.4,5.25,2Z"/><path class="cls-7" d="M465.84,674.25a70.56,70.56,0,0,1-14.49,1.42c-3.63-.1-3.07-5.69.53-5.59a62.82,62.82,0,0,0,13-1.37c3.57-.64,4.49,4.9.93,5.54Z"/><path class="cls-7" d="M450.24,668.08c-1.54,1.4-3.27,2.57-4.81,4a2.83,2.83,0,0,1-3.95-.42,2.86,2.86,0,0,1,.42-4c1.54-1.4,3.27-2.57,4.81-4a2.8,2.8,0,1,1,3.53,4.36Z"/><path class="cls-7" d="M431.9,685.93a22.85,22.85,0,0,0-5.13,5.61c-2.08,3-6.61-.35-4.54-3.32a28,28,0,0,1,6.14-6.66c2.9-2.13,6.45,2.22,3.53,4.37Z"/><path class="cls-7" d="M503.92,574.18a41.1,41.1,0,0,0-12.38-2.32c-3.62-.18-3.07-5.76.53-5.59a46.39,46.39,0,0,1,13.84,2.66c3.4,1.24,1.41,6.49-2,5.25Z"/><path class="cls-7" d="M483.63,555.74A68.4,68.4,0,0,0,471.8,552c-3.54-.64-3-6.24.52-5.59a76.36,76.36,0,0,1,13.3,4.11c3.38,1.28,1.39,6.53-2,5.25Z"/><path class="cls-7" d="M472.28,570c-4.22.76-8.45,1.51-12.59,2.67-3.49,1-4.37-4.57-.93-5.54,4.14-1.16,8.37-1.91,12.59-2.67,3.57-.64,4.49,4.9.93,5.54Z"/><path class="cls-7" d="M457.13,552.58a63.53,63.53,0,0,1-8,10.2c-2.41,2.63-7-.65-4.53-3.32a64,64,0,0,0,8-10.19c1.86-3.1,6.38.23,4.53,3.31Z"/><path class="cls-7" d="M426.51,581.15A138.25,138.25,0,0,0,413.1,586c-3.31,1.46-5.62-3.65-2.3-5.12A137.3,137.3,0,0,1,424.21,576c3.4-1.1,5.75,4,2.3,5.12Z"/><path class="cls-7" d="M397.46,569a3.4,3.4,0,0,0-.46.08c-.76.15.48-.19-.3.11a16.25,16.25,0,0,0-1.58.75c-1,.52-1.94,1.08-3,1.55a2.81,2.81,0,1,1-2.3-5.12c2.18-1,4.23-2.57,6.67-2.9a2.8,2.8,0,0,1,.93,5.53Z"/><path class="cls-7" d="M374.66,589.1a27.76,27.76,0,0,1-8.4,8.28c-3,2-6.57-2.39-3.53-4.36a24,24,0,0,0,7.4-7.23c2-3,6.49.28,4.53,3.31Z"/><path class="cls-7" d="M377.66,603.14a130.29,130.29,0,0,1-12.23,6.11c-3.31,1.49-5.61-3.63-2.31-5.12A126.9,126.9,0,0,0,375.36,598c3.12-1.82,5.4,3.31,2.3,5.12Z"/><path class="cls-7" d="M386.78,494.93c-4.14-.69-8.27-1.4-12.39-2.21-3.52-.7-3-6.3.52-5.59,4.12.81,8.25,1.52,12.39,2.21,3.56.59,3.05,6.19-.52,5.59Z"/><path class="cls-7" d="M341.72,471.76c-.36,0-.71.09-1.05.16s-.74.21.07,0a3.16,3.16,0,0,0-.43.16l-.41.2c-.51.27.57-.37.08-.05a7.88,7.88,0,0,0-1,.78,2.81,2.81,0,1,1-3.53-4.37,9.22,9.22,0,0,1,5.29-2.38,2.81,2.81,0,0,1,.93,5.54Z"/><path class="cls-7" d="M352.84,482.34a35.93,35.93,0,0,1-8.69,6.41c-3.28,1.54-5.58-3.58-2.3-5.12,2.85-1.35,5.16-3.54,7.46-5.66,2.66-2.45,6.18,1.92,3.53,4.37Z"/><path class="cls-7" d="M343.24,500.44l-8.15,1.87c-3.54.82-4.44-4.73-.93-5.53l8.15-1.87c3.54-.81,4.44,4.73.93,5.53Z"/><path class="cls-7" d="M301.25,511.55A39.89,39.89,0,0,1,286,518.42c-3.53.85-4.43-4.7-.93-5.53a33.53,33.53,0,0,0,12.66-5.7c2.87-2.2,6.41,2.16,3.53,4.36Z"/><path class="cls-7" d="M319.18,489.2c-3.05,1.31-6.38,1.73-9.42,3-3.33,1.43-5.64-3.69-2.31-5.12,3.05-1.31,6.38-1.73,9.42-3,3.33-1.43,5.64,3.68,2.31,5.12Z"/><path class="cls-7" d="M273,515c-3,3.26-5.75,6.67-8.72,9.93-2.41,2.64-7-.64-4.53-3.32,3-3.26,5.76-6.66,8.72-9.92,2.41-2.64,7,.63,4.53,3.31Z"/><path class="cls-7" d="M265.11,533.51q-2.73,3.93-5.45,7.85c-2.07,3-6.6-.34-4.53-3.31q2.72-3.93,5.45-7.85c2.07-3,6.6.34,4.53,3.31Z"/><path class="cls-7" d="M243.36,424c-4.5.11-9,.56-13.49.67-3.62.09-3-5.5.53-5.59,4.5-.11,9-.56,13.48-.67,3.62-.09,3.05,5.5-.52,5.59Z"/><path class="cls-7" d="M216.47,412.44a126.13,126.13,0,0,1-12.95,8.93c-3.1,1.86-5.37-3.28-2.3-5.12a114.28,114.28,0,0,0,11.72-8.18c2.85-2.22,6.39,2.13,3.53,4.37Z"/><path class="cls-7" d="M207.91,433.78a30.12,30.12,0,0,0-9.23,6.75,2.87,2.87,0,0,1-3.92.61c-1.12-.82-1.66-2.81-.61-3.92a37.17,37.17,0,0,1,11.46-8.56c3.28-1.53,5.58,3.59,2.3,5.12Z"/><path class="cls-7" d="M179.81,453.22a26.52,26.52,0,0,0-3.37,7c-1.29,3.39-6.54,1.4-5.25-2a31.64,31.64,0,0,1,4.09-8.33c2.21-2.86,6.76.44,4.53,3.31Z"/><path class="cls-7" d="M188.84,431.87A46,46,0,0,1,181.66,444c-2.26,2.81-6.81-.49-4.53-3.32a41.43,41.43,0,0,0,6.47-10.8c1.32-3.37,6.57-1.38,5.24,2Z"/><path class="cls-8" d="M579.92,641a37.34,37.34,0,0,1-14,2.9c-1.53,0-2.66-1.67-2.53-3.06a2.87,2.87,0,0,1,3.06-2.53,30.2,30.2,0,0,0,11.17-2.43c3.32-1.44,5.63,3.67,2.3,5.12Z"/><path class="cls-8" d="M574.69,668.81l-5.78-2.2c-3.39-1.28-1.4-6.53,2-5.24l5.78,2.19c3.39,1.28,1.4,6.53-2,5.25Z"/><path class="cls-8" d="M547.2,665l-2.89-1.1a2.81,2.81,0,0,1,2-5.25l2.89,1.1a2.81,2.81,0,1,1-2,5.25Z"/><path class="cls-8" d="M539.45,649.61a8.23,8.23,0,0,1-5.59.41,2.81,2.81,0,0,1,2-5.25c.38.12-.82-.11-.07,0h.33c-.8,0-.19,0,0,0a6,6,0,0,0,.74-.12l.36-.09c-.75.2-.23.06-.05,0a2.81,2.81,0,1,1,2.3,5.12Z"/><path class="cls-8" d="M542.62,633.09a78.1,78.1,0,0,1-8.87,1.6c-3.59.38-4.53-5.15-.93-5.54a73.91,73.91,0,0,0,8.87-1.6c3.54-.81,4.44,4.73.93,5.54Z"/><path class="cls-8" d="M513.1,634.19a7.77,7.77,0,0,1-6.42,4.29,2.81,2.81,0,0,1-.93-5.54,7.71,7.71,0,0,0,1-.17q.46-.12,0,0a5.79,5.79,0,0,0,.68-.29c.28-.15.29-.15,0,0a3.18,3.18,0,0,0,.37-.27c.24-.22.23-.2,0,0,.46-.52-.19.55.08-.07a2.8,2.8,0,1,1,5.24,2Z"/><path class="cls-8" d="M512.38,653.4a33.41,33.41,0,0,0-4.92,3.31,2.81,2.81,0,1,1-3.53-4.37,39.17,39.17,0,0,1,6.15-4.06c3.29-1.53,5.58,3.59,2.3,5.12Z"/><path class="cls-8" d="M505.49,667.79a19.34,19.34,0,0,1-10.51-.27c-3.42-1.18-1.42-6.42,2-5.25a13.88,13.88,0,0,0,7.59,0c3.55-.78,4.45,4.77.93,5.54Z"/><path class="cls-8" d="M487.72,575.48,481.21,573c-3.38-1.28-1.39-6.53,2-5.25l6.51,2.47c3.38,1.28,1.39,6.53-2,5.25Z"/><path class="cls-8" d="M485.07,562.49a29,29,0,0,1-12.41-1.82c-3.4-1.23-1.41-6.48,2-5.24a22.45,22.45,0,0,0,9.48,1.52c3.59-.29,4.54,5.24.94,5.54Z"/><path class="cls-8" d="M464.7,563.86c-1.85.23-3.58,1-5.43,1.25A2.85,2.85,0,0,1,456,562.8a2.82,2.82,0,0,1,2.3-3.23c1.85-.23,3.58-1,5.43-1.25a2.87,2.87,0,0,1,3.24,2.31,2.83,2.83,0,0,1-2.31,3.23Z"/><path class="cls-8" d="M442.67,552.2c-2.76.31-5.78.87-8.12,2.46a2.87,2.87,0,0,1-3.95-.42,2.82,2.82,0,0,1,.42-4,23.58,23.58,0,0,1,10.72-3.63c3.59-.4,4.53,5.13.93,5.54Z"/><path class="cls-8" d="M437.28,561.62a6.16,6.16,0,0,1-5.43,3.84,2.81,2.81,0,0,1-.93-5.54c.3,0,.59-.07.89-.13s.73-.21-.08.05l.39-.17c.49-.22-.56.4-.14.09.18-.14.44-.5-.11.14a2.25,2.25,0,0,0,.24-.36c-.45.74-.17.31-.08.09a2.81,2.81,0,0,1,5.25,2Z"/><path class="cls-8" d="M443.83,577.85c-3.39-1.28-1.4-6.53,2-5.25s1.39,6.53-2,5.25Z"/><path class="cls-8" d="M444.56,578a24.07,24.07,0,0,0-6.15.67c-3.54.8-4.44-4.74-.93-5.53a29.48,29.48,0,0,1,7.61-.73,2.81,2.81,0,0,1,2.53,3.06,2.85,2.85,0,0,1-3.06,2.53Z"/><path class="cls-8" d="M415.09,569.71a28,28,0,0,1-6.14,6.66c-2.9,2.13-6.45-2.22-3.53-4.37a23,23,0,0,0,5.13-5.6c2.08-3,6.61.34,4.54,3.31Z"/><path class="cls-8" d="M405.54,594.09a14.17,14.17,0,0,1-8.73,3,2.82,2.82,0,0,1-2.53-3.06,2.85,2.85,0,0,1,3.05-2.53,6.77,6.77,0,0,0,2.15-.38,10.76,10.76,0,0,0,2.53-1.43,2.86,2.86,0,0,1,3.95.42,2.83,2.83,0,0,1-.42,4Z"/><path class="cls-8" d="M392.69,581.09c-1.06,2.78-2.35,5.31-4.77,7.14-2.88,2.19-6.42-2.17-3.53-4.36a9.73,9.73,0,0,0,3.05-4.77c1.29-3.39,6.54-1.4,5.25,2Z"/><path class="cls-8" d="M370.93,499.67c-3.43-.56-6.64-.89-10,0s-4.4-4.6-.93-5.53c3.82-1,7.63-.71,11.49-.08,3.56.58,3.05,6.17-.52,5.59Z"/><path class="cls-8" d="M369.89,482.85c-2-.77-4.1-1.58-6.31-1.15-3.57.68-4.48-4.86-.93-5.54,3.19-.61,6.27.32,9.23,1.44,3.39,1.28,1.4,6.53-2,5.25Z"/><path class="cls-8" d="M361,490.65c-2.66.66-5,2.19-7.7,2.86a2.81,2.81,0,0,1-3.23-2.3,2.85,2.85,0,0,1,2.3-3.23c2.66-.67,5-2.2,7.7-2.87a2.81,2.81,0,0,1,3.23,2.3,2.86,2.86,0,0,1-2.3,3.24Z"/><path class="cls-8" d="M352.51,472.29a21.72,21.72,0,0,1-10,3.9c-3.59.42-4.52-5.12-.93-5.53a16,16,0,0,0,7.4-2.73c2.95-2.06,6.51,2.28,3.53,4.36Z"/><path class="cls-8" d="M335.05,485.35c-4.41-1.67-8.8-3.29-13.55-3.59-3.62-.23-3.08-5.82.52-5.59,5.23.33,10.16,2.09,15,3.93,3.38,1.28,1.39,6.53-2,5.25Z"/><path class="cls-8" d="M307.34,485.53a38.52,38.52,0,0,0-5.92,3.77,2.87,2.87,0,0,1-3.95-.42,2.83,2.83,0,0,1,.42-3.95,46.63,46.63,0,0,1,7.14-4.51c3.29-1.54,5.59,3.58,2.31,5.11Z"/><path class="cls-8" d="M328.2,495.92a13.87,13.87,0,0,0-4.69,3.51,2.86,2.86,0,0,1-3.93.61,2.81,2.81,0,0,1-.6-3.92,20.11,20.11,0,0,1,6.92-5.31c3.28-1.54,5.58,3.58,2.3,5.11Z"/><path class="cls-8" d="M324,509.21c-2.57,1.19-4.87,2.66-7.67,3.35a2.82,2.82,0,0,1-3.23-2.3,2.86,2.86,0,0,1,2.3-3.24c2.25-.55,4.21-2,6.3-2.93,3.28-1.52,5.59,3.6,2.3,5.12Z"/><path class="cls-8" d="M306.85,504.83l-5.16.53a2.86,2.86,0,0,1-3.23-2.3,2.83,2.83,0,0,1,2.3-3.24l5.16-.52a2.86,2.86,0,0,1,3.24,2.3,2.82,2.82,0,0,1-2.31,3.23Z"/><path class="cls-8" d="M289,503.38a18,18,0,0,0-4.64,2.59,2.8,2.8,0,1,1-3.53-4.36,22.61,22.61,0,0,1,5.87-3.35,2.81,2.81,0,1,1,2.3,5.12Z"/><path class="cls-8" d="M301.78,519.81a17.82,17.82,0,0,1-5.12,1,2.84,2.84,0,0,1-3.23-2.3,2.81,2.81,0,0,1,2.3-3.23c.79-.08,1.57-.17,2.35-.28.35,0,.69-.12,1-.19s.31-.08,0,0l.38-.14a2.81,2.81,0,1,1,2.3,5.12Z"/><path class="cls-8" d="M258.73,424.89a11.55,11.55,0,0,0-5,1.46c-3.31,1.48-5.61-3.64-2.31-5.12a17.91,17.91,0,0,1,7.85-1.93,2.8,2.8,0,0,1,2.53,3.05,2.86,2.86,0,0,1-3.06,2.54Z"/><path class="cls-8" d="M233.29,430.65c-3.1.29-6.22.3-9.32.59-3.59.35-4.53-5.19-.93-5.53,3.1-.3,6.22-.31,9.32-.6,3.59-.34,4.54,5.19.93,5.54Z"/><path class="cls-8" d="M217.38,419.57c1.38-2,2.85-3.84,3.2-6.28.53-3.58,6.12-3.06,5.59.52s-2.26,6.21-4.26,9.07-6.61-.35-4.53-3.31Z"/><path class="cls-9" d="M286,203.58q-34.08,1.23-68.06,4.14c-1.56.11-3.14.25-4.71.39q-45.31,4-90.39,11.13A294.88,294.88,0,0,0,145,194.05c13.91-17.74,31.14-43.79,41.64-74.75.64-1.87,1.24-3.75,1.83-5.66,0,0,.84,1.57,2.44,4.23,6.43,10.61,25.41,39.21,55.23,62.39A168.6,168.6,0,0,0,286,203.58Z"/><path class="cls-9" d="M551,220q-47.49-7.64-95.31-11.89c-1.56-.16-3.14-.29-4.71-.41q-31.5-2.72-63.09-4a169.26,169.26,0,0,0,42.37-25.12c27.41-21.82,45.31-47.88,52.22-59,2.13-3.43,3.22-5.44,3.23-5.47.55,1.79,1.11,3.57,1.71,5.33,9.86,29.59,25.88,54.74,39.35,72.48h0A299,299,0,0,0,551,220Z"/><path class="cls-9" d="M334.61,79.75a1.28,1.28,0,0,0-.11.2l-.11-.2h.22Z"/><path class="cls-9" d="M620.1,164c-16.42,7.56-52.89,22.52-93.29,28h0c-2.88.39-5.79.73-8.71,1-28.44,2.44-58.15-.09-87.8-14.36-29.34-14.09-58.6-39.7-86.47-83.34v0Q339.12,88,334.5,80,330,88.8,325.45,96.79c-24.65,43.23-51.58,69-79.29,83.47C216.09,196,185.1,198.37,155.08,195.4c-3.38-.37-6.72-.83-10.06-1.35-41.4-6.36-79.36-22.29-96.18-30.07-5.81-2.7-9.1-4.43-9.13-4.46,2.66,3.93,5.33,7.84,8,11.78.07.13.16.23.23.36q50.79,75.71,93.79,154.52a1255.37,1255.37,0,0,1,385.62,0q43.5-79.74,95.07-156.46a.68.68,0,0,1,.14-.23,9.92,9.92,0,0,1,.57-.82l6.16-9.12C628.85,159.8,625.59,161.51,620.1,164ZM119.26,257.61q-5.4-17.12-11-34.23,16.17,10,31.85,20.42Q145.3,261,150.3,278.28,135,267.75,119.26,257.61ZM220.39,238.4q-3.51-15.15-7.16-30.29c1.57-.14,3.15-.28,4.71-.39q12.38,9.12,24.42,18.5,3.79,17.57,7.45,35.17Q235.37,249.72,220.39,238.4Zm114.07,46.4q-10.15-28.26-21.24-56.34,10.17-28.43,21.24-56.7,11.1,28.26,21.26,56.7Q344.64,256.54,334.46,284.8Zm114.07-46.4q-15,11.32-29.41,23,3.67-17.59,7.46-35.17,12.06-9.36,24.42-18.5c1.57.12,3.15.25,4.71.41Q452.06,223.27,448.53,238.4Zm102.2,12.77q-15.81,10.14-31.16,20.64,5-17.25,10.15-34.48,15.76-10.37,32-20.4Q556.17,234,550.73,251.17Z"/><path class="cls-9" d="M533.32,358.09a1233.56,1233.56,0,0,0-397.65,0,7.94,7.94,0,0,1-9.14-6.5l0-.16a8,8,0,0,1,6.61-9.28,1249.55,1249.55,0,0,1,402.77,0,8,8,0,0,1,6.61,9.28l0,.16A7.94,7.94,0,0,1,533.32,358.09Z"/><path class="cls-9" d="M299.62,62q16.68-24.09,34.45-47.79,17.78,23.69,34.46,47.77-17.76,23.29-34.44,47Q317.4,85.23,299.62,62Z"/><path class="cls-9" d="M11.08,119.83q19.46,7.67,38.42,15.84-.53,18.56-.82,37.11Q30.38,146.08,11.08,119.83Z"/><path class="cls-9" d="M657.85,119.83q-19.44,7.67-38.41,15.84.51,18.56.82,37.11Q638.56,146.08,657.85,119.83Z"/><path class="cls-9" d="M465,89.28q12.72-14.79,25.92-29.36,9.93,17,19.35,34.06-13.18,14.4-25.9,29Q474.94,106.08,465,89.28Z"/><path class="cls-9" d="M162.94,92.62q9.48-17.07,19.46-34,13.15,14.61,25.84,29.44-10,16.77-19.48,33.66Q176.09,107.06,162.94,92.62Z"/><path class="cls-9" d="M456.83,203.42c-.37,1.56-.76,3.14-1.12,4.71-1.56-.16-3.14-.29-4.71-.41C452.94,206.26,454.88,204.84,456.83,203.42Z"/><path class="cls-9" d="M217.94,207.72c-1.56.11-3.14.25-4.71.39-.37-1.56-.75-3.13-1.12-4.69C214.07,204.84,216,206.28,217.94,207.72Z"/><path d="M784.32,361.46a4.21,4.21,0,0,1,3.06-5.09c.15,0,24.39-6.19,51.75-11.66,6.39-14.2,15.61-28.1,29.19-34.7a4.18,4.18,0,0,1,5.6,1.95l.08.17c16.53-20.84,33.11-38.65,42.07-41.56,4.69-1.52,7.55.08,8.9,4.29,0,4.11-9.83,30.05-20.43,61.66a24.39,24.39,0,0,1,7.84,1.55,4.2,4.2,0,1,1-3.39,7.68c-1.32-1.31-3.59-2.2-6.6-2.74-16.77,50.82-33.9,113-16.1,123.54a4.19,4.19,0,1,1-7.88,2.83c-12.17-27.73,3.23-82.91,18.08-127-10.39-.42-25.45,1.53-41,4.43-9.94,15-17.77,28.75-20.56,36.82a40.23,40.23,0,0,1-1.58,4.66h0a4.2,4.2,0,0,1-8-2.23,14.5,14.5,0,0,1,1.12-3.43c.48-1.53,1-3.57,1.72-6a255.46,255.46,0,0,1,8.4-25.93c-23.51,5.31-44.26,11.58-47.14,13.75A4.21,4.21,0,0,1,784.32,361.46Zm61.26-10.55c.54-.81,1.1-1.63,1.66-2.45l-.66.14C846.23,349.37,845.9,350.14,845.58,350.91Zm5.92-8.58c5.18-7.37,10.78-15,16.48-22.47-7.81,5.21-13.87,13.65-18.6,22.86Zm47-5.93c9.81-28.6,18.81-51.48,18.66-57.25-8.64,1.55-24.29,17.69-39.72,37.26-6.19,7.86-12.36,16.26-18,24.5C874.11,338.41,888.17,336.57,898.54,336.4Z"/><path d="M961.76,272.7a2,2,0,0,1,.28,1.4c-.63,4.06-3.46,11.76-8.9,19.61-1.16,1.67-2.45,3.36-3.86,5-17.6,37.65-47.09,105.85-36.94,106.83,6.69-.3,38-37.31,51-55.82,3.41-5.17,9.57-3.94,7.24.25-14.31,18.42-47.68,56-56.92,58.54-20.28,4.38,4.89-57.22,24.17-99.23l-.1.08a2.09,2.09,0,0,1-2.9-.52,2.07,2.07,0,0,1,.52-2.89,55.78,55.78,0,0,0,6.51-5.36c.29-.63.58-1.24.87-1.85,7.47-15.88,13.12-27,13.17-27.12C957.46,268.71,961.4,270.12,961.76,272.7Z"/><path d="M953.65,377.8c0-7.86,6.32-19.72,7.84-27,.84-4,4.06-6.18,6.73-6.18a3.64,3.64,0,0,1,3.8,4,10.81,10.81,0,0,1-1.06,4.26c-2,4.56-10.23,20-10.23,26.68a3.63,3.63,0,0,0,.72,2.53,3.18,3.18,0,0,0,2.38,1c7.62,0,24.3-32.2,26.91-33.81a4.91,4.91,0,0,1,2.59-.75c1.86,0,3.44,1.13,3.44,2.71,0,1.06-.71,2.33-2.5,3.59-11.77,8.29-23,31.76-31.81,31.76a9.75,9.75,0,0,1-6.72-2.82C954.24,382.4,953.65,380.31,953.65,377.8Zm25.42-64.18c3.28,0,6,4,6,7.31a4.26,4.26,0,0,1-1.44,3.41c-.84.71-9,10.53-12.56,10.53-1,0-1.64-.79-1.64-2.78a29,29,0,0,1,1.33-7.23C973.1,316.45,976.3,313.62,979.07,313.62Z"/><path d="M1040,351.55a8.43,8.43,0,0,1,5.6,2.18c6.27,5.37,2.55,17,9.3,18.33a4.27,4.27,0,0,0,.74.06c4.25,0,13.27-5.86,23.2-19.64,1.12-1.56,2.31-3.81,3.76-3.81a1.67,1.67,0,0,1,1,.35,4.22,4.22,0,0,1,1,5.89c0,.06-15.23,21.38-28.79,21.38h-.55l-.65,0c-13.34,0-9.46-20.4-13.5-20.4l-.27,0c-3.47.69-11.26,3.7-14.12,16.75h0a4.24,4.24,0,0,1-4.19,3.75,4,4,0,0,1-.49,0c-2.32-.26-6.94-1.87-6.68-4.19,0-.07,6.59-21.11,6.59-32,0-2.84-.45-5-1.58-5.87a2.5,2.5,0,0,0-1.38-.4c-8.06,0-26.47,33.16-30.59,47.22l.12.43a4.19,4.19,0,0,1-1,3.08,4.24,4.24,0,0,1-2.88,1.49h-.35c-2.47,0-4.24-1.92-4.24-4.61,0-10.12,13.83-49.27,13.88-49.38.56-1.41,2.43-2,4.26-2a7.62,7.62,0,0,1,2.71.47,4.21,4.21,0,0,1,2.66,3.92,4.07,4.07,0,0,1-.3,1.55c-.83,1.11-4.42,8.61-7.89,17.33,6.61-11.13,18.84-25.14,25.79-25.14a4.2,4.2,0,0,1,1.81.38c2.8,1.89,3.49,7,3.49,12.85,0,5.6-.62,11.9-.62,16.79,0,.77,0,1.5,0,2.18C1029.9,356,1035.06,351.55,1040,351.55Z"/><path d="M1093.07,336.63h1c3.84,0,6.87.71,6.87,7,0,14.87-15.23,21.41-21.8,23.54a14.91,14.91,0,0,0-.88,4.18c0,1.23.47,1.8,1.34,1.8,5.22,0,25.06-20,48.6-37.82a2.26,2.26,0,0,1,2.92-1.05,2.22,2.22,0,0,1,1.34.57c2.38,1.35,4.76,4.29,4.76,6.31a1.87,1.87,0,0,1-1.46,1.89c-2,.64-16.8,23.19-17.21,31.3,8-10,25.18-33.25,35-33.25a5.15,5.15,0,0,1,2.85.81c9,5.88,2.39,23.1,10.45,23.53h.42c3.63,0,9.94-2.5,19.06-15.28a3.53,3.53,0,0,1,2.85-1.69,3.47,3.47,0,0,1,3.29,3.47,4,4,0,0,1-1.45,3c-12.84,11.68-21.09,15.77-26.5,15.77a9.9,9.9,0,0,1-1.57-.12c-9.9-1.63-5.8-20.95-8.52-23.47a1.18,1.18,0,0,0-.84-.29c-5.88,0-30,27.12-34.15,34.94a5.55,5.55,0,0,1-4.87,2.72c-2.11,0-4-1.2-4-3.79a9.52,9.52,0,0,1,1.29-4.31c3.17-6,6.53-18.52,13-33.61-18,12.13-36.7,35.46-46,35.46a4.93,4.93,0,0,1-.78-.06c-4.78-.75-7-6.38-7-11.35a10.83,10.83,0,0,1,1.67-6.3C1075.61,352.81,1085,336.76,1093.07,336.63Zm-8.94,23.88a11.24,11.24,0,0,0,4.08-.94c6.23-2.88,9.67-10.81,9.67-15,0-1.65-.52-2.74-1.61-2.74-2.22,0-6.78,4.52-14,18C1082.55,360.31,1083.27,360.51,1084.13,360.51Z"/><path d="M1223.73,270.6c2.66,0,5.6,2.78,5.6,4.83,0,.87-.53,1.6-1.81,1.94-2.71.71-8.06,8.74-14.15,20.47,21.62-2.65,44.53-4.94,58.85-4.94,5.89,0,10.33.39,12.62,1.3a3.85,3.85,0,0,1,2.43,3.77c0,2.37-1.59,4.87-3.61,4.87a3.1,3.1,0,0,1-2-.8c-3.29-2.73-11.81-3.81-22.93-3.81-13.57,0-31,1.62-47.56,3.87-13.23,26.62-29.68,74-29.68,96.7a33.76,33.76,0,0,0,.31,4.82c10-14.68,19.1-38.63,35.27-54a4.75,4.75,0,0,1,3.17-1.5,2.06,2.06,0,0,1,2.23,2c0,.94-.61,2.06-2.11,3.06-21.51,14.22-30.52,47.42-35.58,53.93a4,4,0,0,1-3.22,1.76c-1.69,0-3.42-1.15-4.71-3-1.46-2.14-2.12-5.41-2.12-9.53,0-20.89,16.84-63.71,30.37-93.36-17.52,2.58-33.31,5.74-41.34,8.23a21.61,21.61,0,0,0,3.68.33,18.29,18.29,0,0,0,9.68-2.77h.45c1.9,0,3.25,1.06,3.25,2.33,0,1.92-3,4.31-11.89,4.31a67,67,0,0,1-8-.52,4,4,0,0,1-3-.8h-.4a4.1,4.1,0,0,1-4.08-4.31,4,4,0,0,1,3.69-4.12c.11,0,23.25-3.64,49.92-7,6.68-14.34,12.25-24.83,14.07-26.88A3.28,3.28,0,0,1,1223.73,270.6Z"/><path d="M1247.74,354.36c3.94,0,8.58-1.43,14.66-5a5.76,5.76,0,0,1,2.78-.89c1.27,0,2,.73,2,1.69s-.86,2.32-2.88,3.27c-6.33,3-11.55,4.61-16.55,4.61a23.78,23.78,0,0,1-9-1.82c-3.36,11-12.49,25.55-20.11,25.55a5.74,5.74,0,0,1-2.74-.69c-4.14-2.24-5.75-6.72-5.75-11.88,0-11.05,7.36-25.27,13-27.56a6.55,6.55,0,0,1-.15-1.38c0-4.55,5-8.4,9.67-8.4,4.21,0,8.21,3.09,8.21,11.55a40.25,40.25,0,0,1-1.12,8.83A16.47,16.47,0,0,0,1247.74,354.36Zm-33.38,16.77c0,2.86,1.32,5.17,4.75,6.33a3.12,3.12,0,0,0,1,.16c5.62,0,11.46-15.08,12.49-24.56a28.77,28.77,0,0,1-5.35-4.42C1223.83,351.92,1214.36,363.46,1214.36,371.13Zm18-30.57c-1.1.91-.83,3.09.63,5.48A23.74,23.74,0,0,0,1232.31,340.56Z"/><path d="M1274.59,348.24c-1.73,0-2.64-2-2.64-3.51a2,2,0,0,1,.61-1.64c3.85-2.77,7.29-8.58,7.29-11.7,0-1.17-.48-2-1.61-2.06H1278c-1.59,0-4.27,1.17-8.38,4.16a9.28,9.28,0,0,0-3.92,8.13c0,5.44,2.83,12.48,5.2,20.93,9.87-5.18,23-10.15,40.17-14.36a6.73,6.73,0,0,1,1.57-.21c2,0,3,1.12,3,2.42s-1.22,3-3.82,3.65c-15.47.32-29.22,6.36-40,12.19a66.36,66.36,0,0,1,2,15c0,12.16-4.77,23.24-21.55,23.91a5.78,5.78,0,0,1-.73,0,3.63,3.63,0,0,1-1.58-.29c-3.43-1.07-6.4-5.21-6.4-11,0-7.63,5.21-18.11,21.45-28.11-2.27-7.11-5.25-13.77-5.25-20.34,0-5.37,2-10.69,8-16.17,3.2-2.93,6.49-4.32,9.33-4.32a7,7,0,0,1,.92.05c3.22.35,5.08,2.72,5.08,6.55s-2,9.4-6.41,15.83A3.6,3.6,0,0,1,1274.59,348.24Zm-19.24,48.66c9.42,0,12.09-8.5,12.09-16.83a45.33,45.33,0,0,0-1.27-10.44c-11,7.24-17.59,16-17.59,21.65,0,2.77,1.58,4.8,5,5.53C1254.17,396.87,1254.77,396.9,1255.35,396.9Z"/><path d="M787.87,745.62q-17.14,0-30.74-5.5a71.46,71.46,0,0,1-23.27-14.93,69.61,69.61,0,0,1-15.19-21.9,78.82,78.82,0,0,1-6.49-26.55A89.61,89.61,0,0,1,715,648a100.57,100.57,0,0,1,12.62-28.63,144.18,144.18,0,0,1,13.71-18.23,152.51,152.51,0,0,1,14.21-14.07,109.54,109.54,0,0,1,14.08-10.41A128.44,128.44,0,0,1,783,569.43a101.15,101.15,0,0,1,28.91-8.82,30.08,30.08,0,0,1-6.62-16.88,37.54,37.54,0,0,1,.62-8.81,41.91,41.91,0,0,1,3.42-10.4,65.32,65.32,0,0,1,7.23-11.62,96.53,96.53,0,0,1,12.25-13q11.51-10.29,23-13.83a78.66,78.66,0,0,1,20.82-3.8,65.76,65.76,0,0,1,21.07,2.88,22.64,22.64,0,0,1,6.74,3.6,22.18,22.18,0,0,1,6,7,31.92,31.92,0,0,1,3.43,10.39,37.47,37.47,0,0,1-.49,13.35,39.64,39.64,0,0,1-4.66,11.51,49.61,49.61,0,0,1-9.06,11.14,72.69,72.69,0,0,1-31.6,17,9.65,9.65,0,0,1-8.45-1.47,9.93,9.93,0,0,1-4.29-7.35v-.25a10,10,0,0,1,2-6.85,10.5,10.5,0,0,1,5.88-3.92q12.5-2.7,20.33-7a44.85,44.85,0,0,0,12-8.94,27.85,27.85,0,0,0,5.76-9.19,24.49,24.49,0,0,0,1.59-8,9.32,9.32,0,0,0-1.22-5.51,8.94,8.94,0,0,0-4.17-3.8,34.74,34.74,0,0,0-12.73-2.94,38.41,38.41,0,0,0-13.35,2.21q-7.49,2.44-15.56,10.3a71.07,71.07,0,0,0-12,15.2,67,67,0,0,0-7.1,16.55,39.18,39.18,0,0,0-1.23,15.45,20.82,20.82,0,0,0,5.39,11.89,8.41,8.41,0,0,1,0,10.79,7.52,7.52,0,0,1-1.35,1.47q-.85.74-1.59,1.47a9.17,9.17,0,0,1-8.33,1.47,40,40,0,0,0-9.55-1.22q-6.37-.24-15.55,3.67t-21,13.74q-11.74,9.8-25.72,28.68-15.42,20.61-19.22,40T736.19,700a48.73,48.73,0,0,0,18.74,24.15q13.35,9.2,32.45,9.69a74.82,74.82,0,0,0,33.56-6.5,97,97,0,0,0,26.82-18.12,116.82,116.82,0,0,0,19.72-24.74,137.93,137.93,0,0,0,12.37-26.33,82.15,82.15,0,0,0,4.65-22.91q.38-10.15-3.3-14.33-4.17-4.65-9.56-4.4a24.67,24.67,0,0,0-10.9,3.3A62,62,0,0,0,850,627.56q-5.28,4.65-9.19,8.82a9.6,9.6,0,0,1-4.41,2.94,10,10,0,0,1-4.9.24,10.86,10.86,0,0,1-4.53-2.08,9.16,9.16,0,0,1-3.06-4.29,17,17,0,0,0-.74-2.45,9.6,9.6,0,0,1,1.72-9.06A73.11,73.11,0,0,1,836.13,610a57.16,57.16,0,0,1,11-7.1,40,40,0,0,1,10.53-3.43,43.87,43.87,0,0,1,9.55-.61,45.92,45.92,0,0,1,20.09,5.88q8.56,5.88,11.51,18.49t0,28.29a120.8,120.8,0,0,1-11.39,32.34A117.77,117.77,0,0,1,865,714.39a112,112,0,0,1-33.31,22.54Q812.37,745.62,787.87,745.62Z"/><path d="M964.23,596.94q-11.52,16.17-19.47,29.76t-14.09,25.35q-2.45,5.15-5.14,11.15a90.07,90.07,0,0,0-4.29,11.39,25.79,25.79,0,0,0-1.34,8.82,3.28,3.28,0,0,0,3.67,3.43c2.12,0,4.78-1.27,8-3.8a93.59,93.59,0,0,0,9.56-8.82q4.77-5,9.18-10.41t7.1-8.82a18.26,18.26,0,0,1,2.94-3.18,7.32,7.32,0,0,1,4.9-1.47,2.71,2.71,0,0,1,2.7,1.59c.49,1.06.24,2.25-.74,3.55q-3.43,4.66-9.31,12.86a158.45,158.45,0,0,1-13.35,16.17,95.59,95.59,0,0,1-15.92,13.72Q920.15,704,911.81,704q-8.07,0-11-5.39T898.59,685a72.7,72.7,0,0,1,4.28-18,176.15,176.15,0,0,1,8-18.61q10.53-22.29,26.46-49.85a613.48,613.48,0,0,1,38.21-57.68,396.34,396.34,0,0,1,29.64-33.07q5.88-5.88,12.12-11.15a92.07,92.07,0,0,1,12-8.69,34.1,34.1,0,0,1,10.65-4.41,10.3,10.3,0,0,1,8.33,1.47q4.65,3.44,2.2,10.16T1041,511a248.9,248.9,0,0,1-17.14,19.72q-10.17,10.67-21.07,21.92t-21.19,22.66A215.89,215.89,0,0,0,964.23,596.94Z"/><path d="M1136.43,660.38a140.89,140.89,0,0,0,21.92,30.13,114.06,114.06,0,0,0,29.27,22.17,107.83,107.83,0,0,0,36.13,11.39q19.71,2.68,43-2.21a13,13,0,0,1,9.55,1.72q4.41,2.68,5.14,6.86t-3.79,8.57q-4.55,4.41-17,6.86-26,4.89-46.41.24a109.33,109.33,0,0,1-36.26-15.06,125.89,125.89,0,0,1-27.55-24.5,227.88,227.88,0,0,1-20.09-27.8,106.31,106.31,0,0,0-6.37-9.43,28,28,0,0,0-6.61-6.24,12.58,12.58,0,0,1-1.71-.13,14.51,14.51,0,0,0-1.72-.12,290.4,290.4,0,0,0-19,38.7q-7.48,18.86-8.94,34.78a14.67,14.67,0,0,1-.25,4.66,9.75,9.75,0,0,1-1.71,3.55,6.13,6.13,0,0,1-3.92,2.08,6.43,6.43,0,0,1-5.64-2.08,17,17,0,0,1-4.16-7.84,44.74,44.74,0,0,1-1.22-13.23,78.92,78.92,0,0,1,3.18-18.49q1.95-7.1,7.84-20t15.18-29.76a31,31,0,0,1-2.69-3.19,18.12,18.12,0,0,1-2.45-4.53,13.42,13.42,0,0,1-.86-5.39,10.41,10.41,0,0,1,2.33-5.75q2.45-3.18,5.63-2.21t8.33,2.94q8.09-13.71,17.64-28.66t20.45-30.37q10.9-15.44,23-31t25.1-30.49a447.66,447.66,0,0,0-48.74,10q-17.88,4.9-35.27,11.27a249.65,249.65,0,0,0-33.56,15.18q-14,7.35-21.8,17.15t-6.12,18.62c.49,2.94,1.87,4.53,4.16,4.77a26.89,26.89,0,0,0,7.23-.24c2.53-.41,4.93-.69,7.22-.86a4.22,4.22,0,0,1,4.65,2.7,8.19,8.19,0,0,1,.25,5.87,8.83,8.83,0,0,1-2.94,3.92,20.67,20.67,0,0,1-5.39,2.94q-11.76,3.43-19,2T1031.1,605a26.38,26.38,0,0,1-7.59-9.79,29.26,29.26,0,0,1-2.09-12.37,33.61,33.61,0,0,1,2.7-11.39,47.44,47.44,0,0,1,6-10.17,63.63,63.63,0,0,1,8.08-8.7,113.85,113.85,0,0,1,24.5-16.9,254.39,254.39,0,0,1,29.76-13.59,373,373,0,0,1,37-12.13q19.72-5.39,40.3-8.94a275.47,275.47,0,0,1,39.44-4c1.14-1.14,2.81-2.82,5-5a60.65,60.65,0,0,1,7-6,26.22,26.22,0,0,1,7.47-3.92,7.44,7.44,0,0,1,6.73.73,8.69,8.69,0,0,1,4.17,6.74,19.41,19.41,0,0,1-1.72,8.7q18.62,2.7,31,10.53t15.06,22.78q2,11.76-3.92,24.86a107,107,0,0,1-17.26,26.21,203.16,203.16,0,0,1-27,25.48,322.38,322.38,0,0,1-32.58,22.77A294.61,294.61,0,0,1,1168.76,649,196.73,196.73,0,0,1,1136.43,660.38Zm-9.56-19.59a87.94,87.94,0,0,0,9.56-1.11,50.62,50.62,0,0,0,11-3.3q8.82-3.43,21.06-9.56t25.6-14.08q13.35-8,26.58-17.39a218.2,218.2,0,0,0,24-19.72,111.61,111.61,0,0,0,17.64-21.19q6.86-10.89,7.84-21.68a12.23,12.23,0,0,0-2.7-8.69,21.45,21.45,0,0,0-8.69-5.88,58.72,58.72,0,0,0-14.09-3.43,141.54,141.54,0,0,0-18.37-1.1,2,2,0,0,0-.37.49,1.29,1.29,0,0,1-.61.49q-1.71,1.71-7,7.59t-13.1,14.82q-7.85,8.94-17.4,20.58T1168,582.73q-10.27,13.49-20.94,28.17T1126.87,640.79Z"/><path d="M1218.48,705.45a23.12,23.12,0,0,1-9.43-3.92,18.89,18.89,0,0,1-5.39-6.12,18,18,0,0,1-2.08-7.47,47.18,47.18,0,0,1,.24-8.21,66.8,66.8,0,0,1,6.62-20.57q6.86-12.25,14.57-19.23a58.82,58.82,0,0,1,15.07-10.29,37.65,37.65,0,0,1,14.08-3.55,44.56,44.56,0,0,1,11.88,1,13.48,13.48,0,0,1,5.88,3.67,10.16,10.16,0,0,1,2.57,5.64q.62,3.68-2.08,9.3a79.31,79.31,0,0,1-12.49,16.91,76.9,76.9,0,0,1-15.56,11.75q-9.18,5.4-21.68,5.15a16.72,16.72,0,0,0-.24,10.16c1,3,3.67,4.94,8.08,5.76a24.4,24.4,0,0,0,11.39-.25,65.38,65.38,0,0,0,10.66-3.67,84.12,84.12,0,0,0,11-6.37,55.14,55.14,0,0,0,7.72-6.37q4-3.91,7.83-8.08t7.11-8.21l5.51-6.73a17.56,17.56,0,0,1,2.94-3.19,7.71,7.71,0,0,1,5.14-1.47,2.53,2.53,0,0,1,2.45,1.6c.49,1.06.25,2.24-.73,3.55q-2.2,3.18-6,8t-8.58,10q-4.77,5.26-10.41,10.78a137.15,137.15,0,0,1-11.27,9.92,54,54,0,0,1-13,7.59,55.75,55.75,0,0,1-14.33,3.92A46,46,0,0,1,1218.48,705.45Zm17.39-52.66c-1.31,1.63-2.61,3.35-3.92,5.14-1.14,1.64-2.37,3.51-3.67,5.64s-2.54,4.32-3.68,6.61a34.25,34.25,0,0,0,10.66-4.29c3.34-2,6.33-4,8.94-6a88.24,88.24,0,0,0,8.33-7.35q1.47-1.71,3.79-4.28a65.09,65.09,0,0,0,4.29-5.27,25.41,25.41,0,0,0,2.94-5q1-2.33,0-3.06c-2-1.47-4.29-1.6-7-.37a37.06,37.06,0,0,0-8.08,5.14,63.11,63.11,0,0,0-7.48,7.23Z"/><path d="M1390.92,650.09a2.53,2.53,0,0,1,2.45,1.6,3.63,3.63,0,0,1-.49,3.55q-3.44,4.65-9.43,12.86A171.33,171.33,0,0,1,1370,684.26,95.93,95.93,0,0,1,1354.06,698q-8.46,5.76-16.54,5.76-1.71,4.21-3.43,8.81t-3.67,9.56q8.57,0,20.7.49t26.33,1.71a16.25,16.25,0,0,1,5.14.74,7.78,7.78,0,0,1,3.43,1.83,4.29,4.29,0,0,1,1.23,3.8,5,5,0,0,1-1.6,3.55,7.06,7.06,0,0,1-3.18,1.47,11.49,11.49,0,0,1-3.8.12,28.72,28.72,0,0,0-3.43-.24c-.49,0-2.2-.12-5.14-.37s-6.7-.49-11.27-.73-9.76-.45-15.55-.61-11.8-.17-18,0a270.17,270.17,0,0,1-14.08,27.18,156.61,156.61,0,0,1-17.39,24.13A78.22,78.22,0,0,1,1273.35,802a39.51,39.51,0,0,1-23.52,4.9q-16.65-1.47-23.51-9.19a22.06,22.06,0,0,1-5.64-18q1.23-10.29,9.68-21.56A82.79,82.79,0,0,1,1252.77,738a100,100,0,0,1,25.6-11.27,122.45,122.45,0,0,1,30.74-4.65q4.41-9.43,8.2-19.05a172.75,172.75,0,0,0,6.49-19.9,81.91,81.91,0,0,1-13.1,13.47q-7,5.64-13.59,5.15a2.8,2.8,0,0,0-1.23-.25,2.73,2.73,0,0,1-1.22-.24q-5.88-1.23-8.45-4.78a19.75,19.75,0,0,1-3.43-7.59,25,25,0,0,1-.49-7.72c.24-2.45.45-4.08.61-4.9q0-.24.12-.24c.09,0,.12-.08.12-.25.17-.81.33-1.51.49-2.08s.33-1.1.49-1.59a6.33,6.33,0,0,0,.25-1.47,106.84,106.84,0,0,1,8.33-20.82,91.43,91.43,0,0,1,11-16.9,25.24,25.24,0,0,1,4.16-4.17,31.28,31.28,0,0,1,4-2.57,5.26,5.26,0,0,1,4.28-.37,8.53,8.53,0,0,1,5.64,7.11q.74,5.14-4.41,13-1.47,2.21-3.56,5.76c-1.38,2.36-2.81,4.94-4.28,7.71s-2.86,5.55-4.17,8.33a70.25,70.25,0,0,0-3.18,7.84c-.33.82-.65,1.67-1,2.57s-.65,1.76-1,2.57a17.28,17.28,0,0,0-1.23,5.39,6.91,6.91,0,0,0,.49,2.94,3.78,3.78,0,0,0,1.23,1.47q3.92.74,8.94-3.8a78.31,78.31,0,0,0,9.92-11,140.47,140.47,0,0,0,8.82-13.1q3.91-6.62,5.88-10.05,2.45-5.14,5-9.8t5-8.57a26.36,26.36,0,0,1,3.43-4.9,14,14,0,0,1,3.55-2.94,5.76,5.76,0,0,1,4.29-.73,8,8,0,0,1,6.61,6q1.47,5-2.69,13.59c-1,1.8-2.13,4.09-3.43,6.86s-2.66,5.72-4,8.82-2.66,6.21-3.8,9.31a46.26,46.26,0,0,0-2.33,8.33,14.61,14.61,0,0,0,0,6c.41,1.55,1.51,2.25,3.31,2.08,2.12,0,4.78-1.22,8-3.67a78.27,78.27,0,0,0,9.55-8.82q4.79-5.15,9.07-10.53t7-8.82a15.8,15.8,0,0,1,3.06-3.19A7.81,7.81,0,0,1,1390.92,650.09ZM1241.5,793.88q5.88.74,13.35-3.31a70.59,70.59,0,0,0,15.56-12,167.69,167.69,0,0,0,16.41-19.11,204.52,204.52,0,0,0,15.67-24.62,149.34,149.34,0,0,0-16,2.21,76.66,76.66,0,0,0-13.1,3.67,86.14,86.14,0,0,0-15.56,8.33,83.7,83.7,0,0,0-12.74,10.53,57.45,57.45,0,0,0-8.81,11.39,33.4,33.4,0,0,0-4.17,10.66,10.94,10.94,0,0,0,1.35,8.21Q1235.63,793.14,1241.5,793.88Z"/><text class="cls-10" transform="translate(-577.66 -135.97)">El Rey</text></svg>